<svg width="117" height="55" viewBox="0 0 117 55" fill="none" xmlns="http://www.w3.org/2000/svg">
<path d="M8.76401 44V13.2H24.648C27.112 13.2 29.1653 13.508 30.808 14.124C32.48 14.7107 33.7413 15.576 34.592 16.72C35.472 17.864 35.912 19.228 35.912 20.812C35.912 22.5427 35.4133 23.9947 34.416 25.168C33.448 26.3413 31.996 27.1773 30.06 27.676L30.236 26.796C31.5267 27.0893 32.7293 27.588 33.844 28.292C34.988 28.9667 35.8827 29.8467 36.528 30.932C37.2027 31.988 37.54 33.264 37.54 34.76C37.54 36.4907 37.2027 37.9573 36.528 39.16C35.8533 40.3333 34.9293 41.272 33.756 41.976C32.612 42.68 31.336 43.1933 29.928 43.516C28.52 43.8387 27.068 44 25.572 44H8.76401ZM15.1 38.28H25.572C26.628 38.28 27.5667 38.148 28.388 37.884C29.2093 37.5907 29.84 37.1653 30.28 36.608C30.7493 36.0213 30.984 35.3173 30.984 34.496C30.984 33.5867 30.7053 32.868 30.148 32.34C29.5907 31.7827 28.872 31.3867 27.992 31.152C27.1413 30.9173 26.2613 30.8 25.352 30.8H15.1V38.28ZM15.1 25.52H24.604C25.5133 25.52 26.32 25.388 27.024 25.124C27.7573 24.8307 28.3293 24.4347 28.74 23.936C29.1507 23.4373 29.356 22.8507 29.356 22.176C29.356 21.032 28.8867 20.2107 27.948 19.712C27.0093 19.184 25.7773 18.92 24.252 18.92H15.1V25.52ZM48.1234 44V13.2H64.4914C66.6034 13.2 68.4661 13.6253 70.0794 14.476C71.7221 15.2973 72.9981 16.4413 73.9074 17.908C74.8167 19.3747 75.2714 21.0613 75.2714 22.968C75.2714 24.8747 74.7874 26.5907 73.8194 28.116C72.8514 29.6413 71.5314 30.8587 69.8594 31.768C68.2167 32.648 66.3687 33.088 64.3154 33.088H54.5034V44H48.1234ZM69.1114 44L59.6074 30.096L66.5154 28.996L76.8994 44.044L69.1114 44ZM54.5034 27.72H63.6994C64.6087 27.72 65.4301 27.5293 66.1634 27.148C66.8967 26.7667 67.4687 26.2387 67.8794 25.564C68.3194 24.86 68.5394 24.0827 68.5394 23.232C68.5394 22.352 68.3194 21.5893 67.8794 20.944C67.4394 20.2987 66.8234 19.8 66.0314 19.448C65.2394 19.096 64.3594 18.92 63.3914 18.92H54.5034V27.72Z" fill="black"/>
<path d="M80.5149 24V15.2727H82.0959V18.9673H86.1399V15.2727H87.7251V24H86.1399V20.2926H82.0959V24H80.5149ZM97.2429 19.6364C97.2429 20.5767 97.0667 21.3821 96.7145 22.0526C96.365 22.7202 95.8878 23.2315 95.2827 23.5866C94.6804 23.9418 93.9971 24.1193 93.2329 24.1193C92.4687 24.1193 91.7841 23.9418 91.179 23.5866C90.5767 23.2287 90.0994 22.7159 89.7471 22.0483C89.3977 21.3778 89.223 20.5739 89.223 19.6364C89.223 18.696 89.3977 17.892 89.7471 17.2244C90.0994 16.554 90.5767 16.0412 91.179 15.6861C91.7841 15.331 92.4687 15.1534 93.2329 15.1534C93.9971 15.1534 94.6804 15.331 95.2827 15.6861C95.8878 16.0412 96.365 16.554 96.7145 17.2244C97.0667 17.892 97.2429 18.696 97.2429 19.6364ZM95.6534 19.6364C95.6534 18.9744 95.5497 18.4162 95.3423 17.9616C95.1378 17.5043 94.8537 17.1591 94.49 16.9261C94.1264 16.6903 93.7074 16.5724 93.2329 16.5724C92.7585 16.5724 92.3395 16.6903 91.9758 16.9261C91.6122 17.1591 91.3267 17.5043 91.1193 17.9616C90.9148 18.4162 90.8125 18.9744 90.8125 19.6364C90.8125 20.2983 90.9148 20.858 91.1193 21.3153C91.3267 21.7699 91.6122 22.1151 91.9758 22.3509C92.3395 22.5838 92.7585 22.7003 93.2329 22.7003C93.7074 22.7003 94.1264 22.5838 94.49 22.3509C94.8537 22.1151 95.1378 21.7699 95.3423 21.3153C95.5497 20.858 95.6534 20.2983 95.6534 19.6364ZM98.7376 15.2727H100.672L103.263 21.5966H103.365L105.956 15.2727H107.891V24H106.374V18.0043H106.293L103.881 23.9744H102.747L100.336 17.9915H100.255V24H98.7376V15.2727ZM109.613 24V15.2727H115.289V16.598H111.194V18.9673H114.995V20.2926H111.194V22.6747H115.323V24H109.613Z" fill="black"/>
</svg>
