<svg width="17" height="13" viewBox="0 0 17 13" fill="none" xmlns="http://www.w3.org/2000/svg">
<path d="M0.887786 0.0042251C0.611664 0.0484046 0.364402 0.200464 0.200394 0.426951C0.036386 0.653438 -0.0309329 0.935801 0.0132466 1.21192C0.0574261 1.48804 0.209485 1.73531 0.435972 1.89931C0.662459 2.06332 0.944822 2.13064 1.22094 2.08646H4.3443L4.5317 2.60702L5.38542 5.20982L6.23914 7.81261C6.32243 8.08331 6.67641 8.33317 6.9471 8.33317H14.2349C14.5264 8.33317 14.8596 8.08331 14.9429 7.81261L16.6295 2.60702C16.7128 2.33633 16.5879 2.08646 16.2963 2.08646H7.05121L6.25996 0.587252C6.17568 0.415174 6.04555 0.269691 5.8839 0.166822C5.72225 0.0639531 5.53535 0.00768893 5.34377 0.0042251L1.1793 0.0042251C1.11696 -0.00140837 1.05424 -0.00140837 0.991898 0.0042251C0.950291 0.00172417 0.908571 0.00172417 0.866964 0.0042251L0.887786 0.0042251ZM7.46766 10.4154C6.88463 10.4154 6.42654 10.8735 6.42654 11.4565C6.42654 12.0396 6.88463 12.4976 7.46766 12.4976C8.05068 12.4976 8.50877 12.0396 8.50877 11.4565C8.50877 10.8735 8.05068 10.4154 7.46766 10.4154ZM13.7144 10.4154C13.1313 10.4154 12.6732 10.8735 12.6732 11.4565C12.6732 12.0396 13.1313 12.4976 13.7144 12.4976C14.2974 12.4976 14.7555 12.0396 14.7555 11.4565C14.7555 10.8735 14.2974 10.4154 13.7144 10.4154Z" fill="white"/>
</svg>
