<svg width="29" height="16" viewBox="0 0 29 16" fill="none" xmlns="http://www.w3.org/2000/svg">
<path d="M0 1.33333C0 0.979711 0.18649 0.640573 0.518443 0.390525C0.850396 0.140476 1.30062 0 1.77007 0H26.5511C27.0205 0 27.4708 0.140476 27.8027 0.390525C28.1347 0.640573 28.3212 0.979711 28.3212 1.33333C28.3212 1.68696 28.1347 2.02609 27.8027 2.27614C27.4708 2.52619 27.0205 2.66667 26.5511 2.66667H1.77007C1.30062 2.66667 0.850396 2.52619 0.518443 2.27614C0.18649 2.02609 0 1.68696 0 1.33333ZM0 8C0 7.64638 0.18649 7.30724 0.518443 7.05719C0.850396 6.80714 1.30062 6.66667 1.77007 6.66667H26.5511C27.0205 6.66667 27.4708 6.80714 27.8027 7.05719C28.1347 7.30724 28.3212 7.64638 28.3212 8C28.3212 8.35362 28.1347 8.69276 27.8027 8.94281C27.4708 9.19286 27.0205 9.33333 26.5511 9.33333H1.77007C1.30062 9.33333 0.850396 9.19286 0.518443 8.94281C0.18649 8.69276 0 8.35362 0 8ZM0 14.6667C0 14.313 0.18649 13.9739 0.518443 13.7239C0.850396 13.4738 1.30062 13.3333 1.77007 13.3333H26.5511C27.0205 13.3333 27.4708 13.4738 27.8027 13.7239C28.1347 13.9739 28.3212 14.313 28.3212 14.6667C28.3212 15.0203 28.1347 15.3594 27.8027 15.6095C27.4708 15.8595 27.0205 16 26.5511 16H1.77007C1.30062 16 0.850396 15.8595 0.518443 15.6095C0.18649 15.3594 0 15.0203 0 14.6667Z" fill="#0D0D0D"/>
</svg>
