<svg width="21" height="21" viewBox="0 0 21 21" fill="none" xmlns="http://www.w3.org/2000/svg">
<path d="M8.40564 2.10021C6.73366 2.10021 5.13015 2.7644 3.94788 3.94668C2.76561 5.12895 2.10141 6.73246 2.10141 8.40444C2.10141 10.0764 2.76561 11.6799 3.94788 12.8622C5.13015 14.0445 6.73366 14.7087 8.40564 14.7087C10.0776 14.7087 11.6811 14.0445 12.8634 12.8622C14.0457 11.6799 14.7099 10.0764 14.7099 8.40444C14.7099 6.73246 14.0457 5.12895 12.8634 3.94668C11.6811 2.7644 10.0776 2.10021 8.40564 2.10021ZM5.19219e-08 8.40444C0.000191571 7.06675 0.319644 5.74841 0.931807 4.55901C1.54397 3.3696 2.43117 2.34348 3.51966 1.56591C4.60815 0.788341 5.86651 0.281788 7.19014 0.0883499C8.51378 -0.105088 9.86447 0.0201744 11.13 0.453728C12.3954 0.887281 13.5392 1.6166 14.4661 2.58108C15.3931 3.54556 16.0764 4.71734 16.4594 5.99904C16.8424 7.28073 16.914 8.63533 16.6682 9.95025C16.4223 11.2652 15.8663 12.5024 15.0461 13.5592L20.7063 19.2194C20.8976 19.4175 21.0036 19.6829 21.0012 19.9584C20.9988 20.2339 20.8883 20.4974 20.6935 20.6923C20.4986 20.8871 20.2351 20.9976 19.9596 21C19.6841 21.0024 19.4187 20.8965 19.2206 20.7051L13.5604 15.0449C12.3179 16.0096 10.8296 16.6062 9.26487 16.767C7.7001 16.9278 6.12161 16.6463 4.70889 15.9545C3.29617 15.2627 2.10592 14.1883 1.27348 12.8536C0.441043 11.519 -0.000174754 9.97746 5.19219e-08 8.40444Z" fill="#0D0D0D"/>
</svg>
